<svg width="495" height="295" viewBox="0 0 495 295" fill="none" xmlns="http://www.w3.org/2000/svg">
<g clip-path="url(#clip0_512_10469)">
<path opacity="0.1" d="M495 189.329C495.009 197.295 494.011 205.232 492.029 212.964C491.362 215.569 490.587 218.121 489.705 220.618C488.625 223.7 487.373 226.724 485.956 229.675C485.241 231.169 484.486 232.633 483.691 234.066C483.704 242.235 481.962 250.317 478.576 257.802C472.455 271.233 461.54 282.092 447.821 288.401C439.243 292.353 429.869 294.431 420.365 294.488H93.9676C79.4456 294.518 65.1743 290.834 52.6049 283.811L52.4115 283.706C50.6212 282.694 48.8757 281.622 47.175 280.492C43.3485 277.939 39.7535 275.077 36.4287 271.937C31.9287 267.691 27.9634 262.946 24.615 257.802C16.7509 245.745 12.5849 231.783 12.5996 217.534C4.63548 204.04 -0.00848389 187.877 -0.00848389 170.508C-0.00848389 148.594 7.37142 128.603 19.4962 113.471C22.0239 110.309 24.7928 107.334 27.7796 104.571C30.7267 101.837 33.8943 99.3332 37.2525 97.0839C39.9393 95.2823 42.7472 93.6555 45.6578 92.2141C46.8724 91.6176 48.0912 91.0535 49.331 90.53C50.4195 90.0633 51.5206 89.6291 52.6343 89.2192C53.9707 88.7295 55.324 88.2791 56.6941 87.8678C58.0641 87.4566 59.416 87.0968 60.7497 86.7884C62.7109 86.3258 64.7058 85.9497 66.7343 85.6602C68.4153 85.4208 70.0964 85.2544 71.7775 85.1286C73.1139 85.0312 74.463 84.9785 75.8205 84.9622H76.5559C78.0521 84.9622 79.5398 85.019 81.015 85.1164C81.1705 84.8161 81.3386 84.5118 81.4941 84.2155C82.0825 83.132 82.6918 82.0525 83.3054 80.9974C83.3041 80.988 83.3041 80.9784 83.3054 80.969C83.4105 80.7823 83.5156 80.5997 83.6248 80.4212C84.1208 79.5568 84.6377 78.7005 85.1672 77.8524C85.411 77.4465 85.6505 77.0651 85.8985 76.6836C85.951 76.5888 86.0085 76.4967 86.0708 76.4077C86.323 76.0018 86.5793 75.596 86.8399 75.1902C88.1371 73.1882 89.4862 71.2214 90.8871 69.2897L91.2443 68.7946C91.4628 68.4943 91.6646 68.2021 91.9083 67.9018C92.4883 67.1186 93.0851 66.3313 93.6861 65.5603C94.1063 65.0083 94.5266 64.4605 94.9805 63.937C96.0732 62.5843 97.1939 61.2316 98.3426 59.8789C99.4914 58.5261 100.685 57.191 101.923 55.8735C102.091 55.6909 102.26 55.5123 102.436 55.3337L104.231 53.4426C104.319 53.3534 104.394 53.2722 104.479 53.191C104.693 52.9678 104.899 52.7446 105.13 52.5296C106.092 51.5434 107.08 50.5776 108.072 49.6158C113.119 44.7613 118.497 40.2372 124.168 36.0738C124.391 35.9034 124.618 35.741 124.841 35.5787C125.908 34.8036 126.992 34.0366 128.077 33.2818C134.041 29.1504 140.275 25.3956 146.741 22.0408C147.186 21.7932 147.64 21.5619 148.098 21.3347C153.895 18.3735 159.856 15.7235 165.955 13.3969C169.28 12.1267 172.68 10.9336 176.101 9.842C178.378 9.11965 180.665 8.43383 182.98 7.78858C186.6 6.78217 190.245 5.87991 193.916 5.0818C204.729 2.73898 215.729 1.29173 226.798 0.755827C230.16 0.590796 233.56 0.505576 236.997 0.500165C253.585 0.47896 270.109 2.4972 286.169 6.50621C286.335 6.74852 286.562 6.94605 286.829 7.08023C287.096 7.21441 287.394 7.28081 287.694 7.2732H289.106C289.72 7.43552 290.329 7.59785 290.943 7.76829C294.37 8.7206 297.747 9.76084 301.076 10.889L301.916 11.1812C310.132 14.002 318.125 17.3926 325.834 21.3265C332.783 24.8642 339.474 28.8559 345.859 33.2737C346.843 33.9555 347.812 34.6426 348.768 35.3352C349.928 34.6183 351.107 33.9311 352.306 33.2737C356.937 30.727 361.856 28.7022 366.965 27.2392C377.648 24.1868 388.951 23.7599 399.847 25.9975C413.821 28.8584 426.471 35.9602 436.688 46.0609C440.848 50.1936 444.551 54.7335 447.737 59.607C447.968 59.956 448.199 60.309 448.422 60.6661C451.16 64.9795 453.513 69.5098 455.457 74.2082C455.528 74.3827 455.6 74.545 455.663 74.7154C457.457 79.1149 458.904 83.6391 459.992 88.2493C460.042 88.4847 460.101 88.716 460.151 88.9514C461.168 93.413 461.859 97.9381 462.219 102.493C462.219 102.656 462.219 102.822 462.253 102.993C462.429 105.349 462.519 107.73 462.522 110.135C462.522 112.286 462.446 114.42 462.307 116.539C462.307 116.77 462.274 117.009 462.253 117.249C462.215 117.862 462.16 118.466 462.106 119.083C465.315 121.583 468.319 124.32 471.091 127.268C472.315 128.559 473.5 129.898 474.646 131.286C478.137 135.51 481.205 140.044 483.808 144.828C490.915 157.781 495 173.02 495 189.329Z" fill="#6C63FF"/>
<path opacity="0.1" d="M447.51 286.899C447.51 289.67 437.621 292.268 420.365 294.5H93.9677C79.4457 294.53 65.1744 290.846 52.6049 283.823L52.4116 283.717C57.3708 281.972 66.3225 280.345 78.5061 278.876L79.0524 278.811C84.5159 278.166 90.6224 277.553 97.2962 276.973C97.4643 276.973 97.6367 276.948 97.8048 276.928C103.1 276.473 108.733 276.047 114.704 275.65C114.893 275.65 115.078 275.617 115.267 275.609C117.57 275.449 119.921 275.298 122.319 275.155L123.244 275.098C140.706 274.051 160.555 273.215 182.081 272.663H182.106C185.121 272.582 188.168 272.51 191.247 272.448C194.671 272.369 198.137 272.3 201.645 272.241C204.322 272.184 207.032 272.143 209.752 272.103H209.815C222.082 271.924 234.757 271.835 247.719 271.835C279.768 271.835 310.061 272.399 336.904 273.414H336.979C341.106 273.568 345.158 273.738 349.108 273.913L352.47 274.067C356.928 274.273 361.271 274.493 365.499 274.728C415.216 277.46 447.51 281.895 447.51 286.899Z" fill="#6C63FF"/>
<g opacity="0.2">
<path d="M285.9 269.972C285.886 270.41 285.834 270.846 285.744 271.275C282.819 270.826 279.877 270.42 276.919 270.057C276.919 269.944 276.919 269.826 276.919 269.708C276.946 268.492 277.309 267.304 277.969 266.267C278.835 264.944 280.151 264.116 281.601 264.161C283.05 264.206 284.307 265.111 285.085 266.478C285.673 267.552 285.954 268.758 285.9 269.972Z" fill="#3F3D56"/>
<path d="M286.141 263.038C286.244 259.9 284.315 257.294 281.833 257.218C279.35 257.142 277.255 259.625 277.152 262.764C277.049 265.902 278.978 268.508 281.461 268.583C283.943 268.659 286.039 266.176 286.141 263.038Z" fill="#3F3D56"/>
<path d="M286.371 256.09C286.473 252.951 284.544 250.346 282.062 250.27C279.58 250.194 277.484 252.677 277.381 255.815C277.279 258.954 279.208 261.559 281.69 261.635C284.172 261.711 286.268 259.228 286.371 256.09Z" fill="#3F3D56"/>
<path d="M286.596 249.142C286.698 246.004 284.769 243.398 282.287 243.323C279.805 243.247 277.709 245.73 277.606 248.868C277.504 252.007 279.433 254.612 281.915 254.688C284.397 254.764 286.493 252.281 286.596 249.142Z" fill="#3F3D56"/>
<path d="M286.821 242.194C286.923 239.056 284.994 236.45 282.512 236.374C280.03 236.299 277.934 238.781 277.832 241.92C277.729 245.058 279.658 247.664 282.14 247.74C284.622 247.815 286.718 245.333 286.821 242.194Z" fill="#3F3D56"/>
<path d="M267.03 193.988C266.438 193.214 265.904 192.4 265.433 191.553L277.31 190.039L264.525 189.743C263.384 187.13 262.807 184.319 262.83 181.484C262.852 178.648 263.473 175.847 264.655 173.251L281.517 182.361L266.072 170.657C267.63 168.224 269.691 166.127 272.126 164.497C274.561 162.868 277.318 161.74 280.224 161.186C283.131 160.631 286.125 160.661 289.019 161.274C291.913 161.887 294.645 163.069 297.044 164.747C299.444 166.425 301.459 168.563 302.964 171.027C304.47 173.491 305.433 176.229 305.793 179.068C306.154 181.908 305.904 184.789 305.06 187.531C304.216 190.273 302.795 192.818 300.887 195.006C301.807 196.21 302.589 197.507 303.219 198.874L287.631 206.097L304.161 201.296C305.201 204.613 305.369 208.128 304.649 211.523C303.928 214.918 302.342 218.085 300.034 220.739C302.433 223.883 303.868 227.616 304.175 231.51C304.481 235.404 303.646 239.304 301.765 242.761C299.885 246.219 297.034 249.096 293.54 251.063C290.046 253.031 286.049 254.009 282.006 253.885C277.963 253.762 274.038 252.543 270.679 250.367C267.32 248.192 264.663 245.147 263.012 241.581C261.36 238.016 260.781 234.074 261.341 230.206C261.901 226.338 263.577 222.7 266.177 219.708C263.31 215.951 261.834 211.372 261.986 206.707C262.139 202.043 263.911 197.563 267.017 193.988H267.03Z" fill="#6C63FF"/>
<path opacity="0.1" d="M305.077 208.02C304.93 212.688 303.152 217.17 300.034 220.738C302.433 223.882 303.868 227.615 304.175 231.51C304.481 235.404 303.646 239.303 301.765 242.761C299.885 246.219 297.034 249.096 293.54 251.063C290.046 253.03 286.049 254.008 282.006 253.885C277.963 253.762 274.038 252.543 270.679 250.367C267.32 248.191 264.663 245.146 263.012 241.581C261.36 238.016 260.781 234.074 261.341 230.205C261.901 226.337 263.577 222.699 266.177 219.708C263.416 216.084 305.152 205.687 305.077 208.02Z" fill="black"/>
</g>
<g opacity="0.2">
<path d="M222.019 269.972C222.006 270.41 221.954 270.846 221.864 271.275C218.939 270.826 215.997 270.42 213.038 270.057C213.038 269.944 213.038 269.826 213.038 269.708C213.065 268.492 213.428 267.304 214.089 266.267C214.954 264.944 216.27 264.116 217.72 264.161C219.17 264.206 220.426 265.111 221.204 266.478C221.792 267.552 222.073 268.758 222.019 269.972Z" fill="#3F3D56"/>
<path d="M222.256 263.039C222.359 259.901 220.43 257.295 217.947 257.219C215.465 257.143 213.369 259.626 213.267 262.765C213.164 265.903 215.093 268.509 217.575 268.584C220.058 268.66 222.153 266.177 222.256 263.039Z" fill="#3F3D56"/>
<path d="M222.485 256.092C222.588 252.953 220.659 250.348 218.177 250.272C215.694 250.196 213.599 252.679 213.496 255.817C213.393 258.956 215.322 261.561 217.805 261.637C220.287 261.713 222.383 259.23 222.485 256.092Z" fill="#3F3D56"/>
<path d="M222.71 249.143C222.813 246.005 220.884 243.399 218.402 243.324C215.919 243.248 213.824 245.731 213.721 248.869C213.618 252.008 215.547 254.613 218.03 254.689C220.512 254.765 222.608 252.282 222.71 249.143Z" fill="#3F3D56"/>
<path d="M222.935 242.196C223.038 239.058 221.109 236.452 218.627 236.376C216.144 236.301 214.049 238.783 213.946 241.922C213.844 245.06 215.773 247.666 218.255 247.742C220.737 247.817 222.833 245.335 222.935 242.196Z" fill="#3F3D56"/>
<path d="M203.149 193.988C202.557 193.214 202.024 192.4 201.552 191.553L213.429 190.039L200.644 189.743C199.503 187.13 198.927 184.319 198.949 181.484C198.971 178.648 199.593 175.847 200.775 173.251L217.636 182.361L202.191 170.657C203.749 168.224 205.81 166.127 208.245 164.497C210.68 162.868 213.437 161.74 216.343 161.186C219.25 160.631 222.244 160.661 225.138 161.274C228.032 161.887 230.764 163.069 233.163 164.747C235.563 166.425 237.578 168.563 239.084 171.027C240.589 173.491 241.552 176.229 241.913 179.068C242.273 181.908 242.024 184.789 241.179 187.531C240.335 190.273 238.914 192.818 237.006 195.006C237.926 196.21 238.709 197.507 239.338 198.874L223.751 206.097L240.28 201.296C241.321 204.613 241.488 208.128 240.768 211.523C240.047 214.918 238.461 218.085 236.153 220.739C238.553 223.883 239.988 227.616 240.294 231.51C240.6 235.404 239.765 239.304 237.885 242.761C236.004 246.219 233.154 249.096 229.659 251.063C226.165 253.031 222.168 254.009 218.125 253.885C214.082 253.762 210.157 252.543 206.798 250.367C203.439 248.192 200.782 245.147 199.131 241.581C197.48 238.016 196.901 234.074 197.46 230.206C198.02 226.338 199.696 222.7 202.296 219.708C199.429 215.951 197.953 211.372 198.106 206.707C198.258 202.043 200.03 197.563 203.137 193.988H203.149Z" fill="#6C63FF"/>
<path opacity="0.1" d="M241.196 208.02C241.049 212.688 239.272 217.17 236.153 220.738C238.553 223.882 239.988 227.615 240.294 231.51C240.6 235.404 239.765 239.303 237.885 242.761C236.004 246.219 233.154 249.096 229.659 251.063C226.165 253.03 222.168 254.008 218.125 253.885C214.082 253.762 210.157 252.543 206.798 250.367C203.439 248.191 200.782 245.146 199.131 241.581C197.48 238.016 196.901 234.074 197.46 230.205C198.02 226.337 199.696 222.699 202.296 219.708C199.535 216.084 241.272 205.687 241.196 208.02Z" fill="black"/>
</g>
<g opacity="0.2">
<path d="M396.514 274.413C396.482 275.242 396.38 276.067 396.208 276.88C390.576 276.012 384.904 275.235 379.191 274.551C379.191 274.332 379.191 274.109 379.191 273.881C379.244 271.538 379.944 269.25 381.217 267.254C382.898 264.71 385.419 263.115 388.206 263.196C390.992 263.277 393.417 265.027 394.93 267.66C396.071 269.735 396.618 272.066 396.514 274.413Z" fill="#3F3D56"/>
<path d="M396.972 261.052C397.17 255.008 393.454 249.99 388.673 249.844C383.891 249.698 379.855 254.48 379.657 260.523C379.459 266.567 383.175 271.585 387.956 271.731C392.738 271.877 396.774 267.096 396.972 261.052Z" fill="#3F3D56"/>
<path d="M397.409 247.676C397.606 241.632 393.891 236.614 389.109 236.468C384.328 236.322 380.292 241.104 380.094 247.147C379.896 253.191 383.612 258.209 388.393 258.355C393.174 258.501 397.211 253.72 397.409 247.676Z" fill="#3F3D56"/>
<path d="M397.85 234.3C398.047 228.256 394.332 223.238 389.55 223.092C384.769 222.946 380.733 227.728 380.535 233.771C380.337 239.815 384.053 244.833 388.834 244.979C393.615 245.125 397.652 240.344 397.85 234.3Z" fill="#3F3D56"/>
<path d="M397.794 220.316C397.981 214.269 394.256 209.254 389.472 209.116C384.688 208.977 380.658 213.767 380.47 219.814C380.282 225.861 384.008 230.875 388.792 231.014C393.575 231.152 397.606 226.363 397.794 220.316Z" fill="#3F3D56"/>
<path d="M360.182 128.133C359.048 126.643 358.022 125.08 357.11 123.454L379.973 120.54L355.366 119.968C353.168 114.938 352.056 109.528 352.098 104.068C352.14 98.6088 353.335 93.2151 355.61 88.217L388.076 105.752L358.346 83.2214C361.352 78.5481 365.322 74.5226 370.01 71.396C374.698 68.2693 380.002 66.1085 385.593 65.0481C391.183 63.9877 396.94 64.0505 402.504 65.2326C408.069 66.4147 413.321 68.6907 417.935 71.9189C422.548 75.147 426.424 79.258 429.319 83.9958C432.215 88.7335 434.07 93.9964 434.767 99.4565C435.464 104.917 434.989 110.457 433.372 115.732C431.754 121.007 429.029 125.904 425.366 130.117C427.136 132.436 428.643 134.933 429.859 137.564L399.847 151.479L431.666 142.227C433.671 148.604 433.997 155.363 432.616 161.893C431.234 168.422 428.187 174.516 423.752 179.623C428.371 185.675 431.133 192.861 431.722 200.358C432.311 207.855 430.703 215.361 427.083 222.017C423.462 228.673 417.975 234.211 411.248 237.998C404.521 241.785 396.827 243.667 389.045 243.43C381.262 243.193 373.706 240.846 367.239 236.658C360.773 232.47 355.658 226.609 352.479 219.746C349.3 212.882 348.185 205.294 349.262 197.847C350.339 190.401 353.564 183.398 358.569 177.638C353.052 170.405 350.212 161.592 350.505 152.614C350.798 143.636 354.206 135.013 360.182 128.129V128.133Z" fill="#6C63FF"/>
<path opacity="0.1" d="M433.435 155.143C433.16 164.124 429.754 172.751 423.769 179.63C428.388 185.683 431.15 192.869 431.739 200.365C432.328 207.862 430.72 215.368 427.1 222.024C423.479 228.681 417.992 234.219 411.265 238.005C404.538 241.792 396.844 243.675 389.062 243.438C381.279 243.201 373.723 240.854 367.257 236.666C360.79 232.477 355.675 226.616 352.496 219.753C349.317 212.89 348.202 205.301 349.279 197.855C350.356 190.409 353.581 183.405 358.586 177.646C353.231 170.662 433.582 150.651 433.435 155.143Z" fill="black"/>
</g>
<path d="M66.3267 275.126L70.7353 275.114H76.9511L84.8101 151.836L162.64 26.4274L159.256 22.9212V14.042L75.0851 148.93L66.3267 275.126Z" fill="#F1C0C0"/>
<path opacity="0.1" d="M71.206 275.114H76.9511L84.8101 151.836L162.64 26.4271L159.256 22.9209L78.9768 149.957L71.206 275.114Z" fill="black"/>
<path d="M53.3362 276.153L255.002 291.054L255.174 291.066L450.342 279.476L450.489 279.468V271.51L235.438 267.7L56.0217 267.533H54.7105L54.5676 268.426L53.3362 276.153Z" fill="#F1C0C0"/>
<path opacity="0.1" d="M53.3362 276.153L255.002 291.054L255.174 291.066L450.342 279.476L450.489 279.322V271.677H450.317L255.002 277.975L56.0217 267.533H55.9923L55.6393 267.756L54.5676 268.426L53.3362 276.153Z" fill="black"/>
<path opacity="0.1" d="M53.3362 276.153L255.002 291.055V277.975L55.6393 267.757L54.5676 268.426L53.3362 276.153Z" fill="black"/>
<path d="M159.231 22.7552L248.139 114.899L245.39 276.981L252.942 277.862L253.069 277.878H260.621L261.524 121.859L428.005 175.556L430.812 271.166L436.89 271.824L438.949 272.047L434.183 168.925L260.15 109.928L164.724 14.1357H159.231V22.7552Z" fill="#F1C0C0"/>
<path opacity="0.1" d="M260.839 118.876L261.524 121.859L428.005 175.556L430.813 271.166L436.89 271.823L432.124 173.568L260.839 118.876Z" fill="black"/>
<path opacity="0.1" d="M159.231 22.7552L248.139 114.899L245.39 276.981L252.942 277.862L255.002 109.595L159.231 14.1357V22.7552Z" fill="black"/>
<path d="M261.163 183.924L322.224 195.535L322.245 195.539L429.19 215.882L434.086 213.987L434.07 213.654L433.75 207.06L261.226 173.397L261.163 183.924Z" fill="#F1C0C0"/>
<path opacity="0.1" d="M322.245 195.538L429.19 215.882L434.086 213.986L434.07 213.654L322.245 195.538Z" fill="black"/>
<path d="M326.334 142.762L327.986 230.556L328.839 275.597L336.357 275.353L341.089 275.199L339.619 144.032L336.357 142.985L335.643 142.762H326.334Z" fill="#F1C0C0"/>
<path opacity="0.1" d="M326.401 142.742V142.762L327.986 230.556L328.839 275.598L336.357 275.354V142.742H326.401Z" fill="black"/>
<path d="M208.562 165.184C209.003 165.415 209.425 165.68 209.823 165.975C210.294 166.373 210.717 166.821 211.084 167.31C212.887 169.563 214.551 172.18 214.374 175.021C214.378 175.434 214.297 175.844 214.137 176.227C213.976 176.61 213.738 176.959 213.437 177.253C212.693 177.865 211.626 177.894 210.651 177.894C209.592 177.894 208.478 177.894 207.562 177.366C206.646 176.839 205.881 175.812 204.797 175.836C204.644 175.861 204.487 175.861 204.334 175.836C203.96 175.719 203.885 175.244 203.641 174.944C203.221 174.404 202.334 174.538 201.674 174.773C201.014 175.009 200.283 175.362 199.631 175.09C199.253 174.897 198.944 174.599 198.745 174.233C197.186 171.799 196.854 168.873 196.559 166.044C196.379 164.323 195 158.455 198.804 159.791C200.485 160.375 202.056 161.544 203.586 162.4L208.562 165.184Z" fill="#3F3D56"/>
<path d="M204.805 165.764C205.145 166 205.556 166.119 205.975 166.103C206.393 166.087 206.793 165.936 207.112 165.675C207.738 165.129 208.137 164.382 208.234 163.573C208.655 163.447 208.869 163.978 209.138 164.303C209.609 164.855 210.567 164.847 210.996 165.435C211.294 165.841 211.227 166.405 211.437 166.864C211.71 167.456 212.387 167.765 212.849 168.244C213.285 168.767 213.601 169.374 213.774 170.025L214.463 172.022C214.793 172.852 215.005 173.722 215.093 174.607C215.137 175.049 215.088 175.496 214.951 175.92C214.814 176.344 214.591 176.738 214.295 177.078C213.37 178.04 211.853 178.141 210.512 178.113C210.064 178.122 209.618 178.072 209.184 177.963C207.995 177.606 207.234 176.449 206.919 175.284C206.604 174.12 206.637 172.898 206.452 171.705C206.253 170.533 205.9 169.39 205.402 168.304C205.032 167.46 204.015 166.202 204.032 165.305C204.334 165.305 204.553 165.573 204.805 165.764Z" fill="#3F3D56"/>
<path d="M206.314 161.653C206.117 161.077 206.003 160.477 205.973 159.871C205.973 158.654 206.549 157.509 207.129 156.422L202.325 157.051C201.745 157.128 201.098 157.242 200.77 157.708C200.646 157.94 200.581 158.196 200.581 158.457C200.581 158.718 200.646 158.974 200.77 159.206C201.011 159.669 201.203 160.154 201.342 160.655C201.353 161.092 201.405 161.528 201.498 161.957C201.647 162.272 201.857 162.557 202.115 162.797C203.49 164.266 204.519 165.999 205.545 167.716C205.515 167.667 208.44 165.48 208.323 164.765C208.255 164.36 207.411 163.873 207.142 163.483C206.77 162.918 206.491 162.3 206.314 161.653Z" fill="#BE6F72"/>
<path d="M247.5 145.798V149.795L176.613 163.146L172.936 165.297H160.248V163.045L229.895 146.796L247.5 145.798Z" fill="#F1C0C0"/>
<path opacity="0.1" d="M247.5 149.795L176.613 163.146L172.936 165.297H160.248L230.412 150.797L247.5 149.795Z" fill="black"/>
<path d="M190.587 259.272C189.798 258.348 188.707 257.71 187.494 257.461C186.281 257.212 185.016 257.366 183.905 257.9C183.667 258.008 183.458 258.166 183.291 258.363C182.871 258.931 183.14 259.714 183.178 260.416C183.275 262.129 181.863 263.52 180.593 264.718C179.913 265.359 179.219 266.045 178.912 266.917C178.605 267.79 178.832 268.898 179.656 269.352C180.016 269.526 180.407 269.631 180.808 269.66C182.151 269.913 183.528 269.95 184.884 269.77C186.225 269.522 187.54 268.788 188.12 267.595C188.232 267.271 188.417 266.976 188.663 266.73C189.402 266.166 190.537 266.828 191.377 266.426C192.071 266.093 192.1 265.57 192.109 264.88C192.134 262.973 191.84 260.814 190.587 259.272Z" fill="#6C63FF"/>
<path d="M200.674 259.199C201.191 260.513 201.262 261.946 201.329 263.35C201.367 264.162 201.392 265.03 200.939 265.716C200.485 266.402 199.598 266.763 198.749 266.933C196.996 267.282 194.967 266.954 193.836 265.61C192.97 264.584 192.79 263.176 192.949 261.844C193.084 260.753 193.369 259.475 192.558 258.699C192.348 258.492 192.075 258.346 191.882 258.123C191.461 257.628 191.529 256.881 191.756 256.273C192.051 255.69 192.273 255.076 192.415 254.442C192.449 254.142 198.106 254.653 198.627 254.901C199.337 255.238 199.228 255.802 199.442 256.484C199.741 257.433 200.312 258.29 200.674 259.199Z" fill="#6C63FF"/>
<path d="M201.712 200.899C202.821 201.593 203.25 202.956 203.422 204.223C203.897 207.692 203.065 211.199 203.002 214.701C202.943 219.607 204.414 224.603 203.158 229.355C202.405 232.195 203.044 235.442 202.338 238.311C202.128 239.163 201.741 239.967 201.54 240.819C201.119 242.665 201.561 244.597 202.153 246.403C202.342 246.89 202.462 247.399 202.51 247.917C202.482 248.714 202.272 249.495 201.897 250.205L199.375 255.964C199.094 256.609 197.984 256.715 197.274 256.8C195.937 256.954 194.445 257.064 193.382 256.264C192.319 255.465 192.062 254.125 191.899 252.876C191.584 250.476 191.444 248.058 191.478 245.64C191.524 245.009 191.466 244.375 191.306 243.761C191.075 243.067 190.566 242.466 190.428 241.732C190.251 240.782 190.751 239.849 190.936 238.891C191.063 238.016 191.049 237.128 190.894 236.258C190.73 234.959 190.541 233.66 190.327 232.37C190.024 230.564 190.457 228.782 190.747 226.972C191.02 225.272 190.671 223.539 190.327 221.851C190.357 223.221 190.18 224.588 189.801 225.909C189.579 226.555 189.259 227.171 189.066 227.829C188.204 230.779 190.041 233.875 189.78 236.931C189.659 238.36 189.079 239.772 189.242 241.18C189.356 242.211 189.852 243.156 190.192 244.138C190.533 245.12 190.709 246.245 190.192 247.162C188.826 249.653 189.848 253.042 191.071 255.599C191.319 256.052 191.535 256.521 191.718 257.003C192.079 258.155 191.777 259.393 191.873 260.594C191.521 260.65 191.161 260.627 190.819 260.528C190.478 260.429 190.164 260.256 189.902 260.022C189.717 259.835 189.566 259.616 189.385 259.421C188.88 258.957 188.283 258.596 187.629 258.362C187.245 258.155 186.807 258.057 186.368 258.082C185.906 258.207 185.49 258.456 185.17 258.8C184.754 259.153 184.313 259.478 183.85 259.77C183.653 259.917 183.423 260.015 183.178 260.058C183.055 260.077 182.929 260.057 182.818 260.003C182.707 259.948 182.617 259.861 182.56 259.754C182.534 259.686 182.518 259.615 182.514 259.543C182.358 258.318 182.275 257.085 182.266 255.85C182.266 253.728 179.635 252.267 179.303 250.169C179.038 248.477 179.53 246.752 179.366 245.047C179.286 244.171 179.034 243.311 179.051 242.434C179.051 241.866 179.185 241.31 179.232 240.746C179.27 240.12 179.26 239.492 179.202 238.867L179.072 236.907C178.946 234.971 178.807 232.995 178.017 231.225C177.08 229.159 176.525 226.951 176.378 224.7C176.294 223.28 176.349 221.859 176.181 220.435C176.029 219.148 175.693 217.87 175.79 216.58C175.87 215.581 176.21 214.615 176.29 213.617C176.454 211.698 175.697 209.831 175.105 207.993C174.512 206.154 174.075 204.117 174.853 202.344C174.964 202.053 175.149 201.793 175.39 201.589C175.689 201.398 176.028 201.276 176.382 201.232C183.593 199.769 190.984 199.314 198.329 199.88C199.526 199.946 200.688 200.296 201.712 200.899Z" fill="#3F3D56"/>
<path d="M177.853 157.797C181.572 157.797 184.586 154.887 184.586 151.296C184.586 147.706 181.572 144.795 177.853 144.795C174.135 144.795 171.12 147.706 171.12 151.296C171.12 154.887 174.135 157.797 177.853 157.797Z" fill="#BE6F72"/>
<path d="M176.55 159.417C176.647 159.789 176.647 160.178 176.55 160.549C176.445 160.809 176.295 161.05 176.109 161.264C175.457 162.075 174.736 162.833 173.953 163.528C174.352 164.388 175.07 165.073 175.966 165.448C176.856 165.813 177.789 166.071 178.744 166.215C179.221 166.336 179.717 166.369 180.207 166.312C180.658 166.202 181.085 166.016 181.468 165.76L185.208 163.597C185.772 163.302 186.295 162.938 186.763 162.514C187.449 161.833 187.837 160.923 187.847 159.973C187.865 159.803 187.817 159.633 187.713 159.494C187.569 159.374 187.389 159.301 187.2 159.287C185.885 159.007 184.846 157.977 184.258 156.808C183.726 155.61 183.382 154.342 183.237 153.046L179.249 155.075C178.656 155.379 178.068 155.684 177.454 155.947C177.063 156.118 176.273 156.26 175.996 156.605C175.466 157.242 176.412 158.65 176.55 159.417Z" fill="#BE6F72"/>
<path d="M173.978 162.347C173.411 162.797 172.967 163.375 172.688 164.031C172.428 164.843 172.688 165.699 172.924 166.503C174.027 169.927 174.869 173.425 175.445 176.969C175.798 179.403 175.928 181.875 176.101 184.338C176.454 189.362 176.966 197.373 177.652 202.364C180.173 202.474 182.632 201.764 185.132 201.504C189.806 201.025 194.618 202.121 199.194 201.098C198.085 196.866 196.975 189.638 195.866 185.409C195.375 183.743 195.035 182.039 194.849 180.316C194.752 179.079 194.811 177.837 194.828 176.591C194.866 174.156 194.727 171.721 194.588 169.286C194.429 166.446 194.269 163.605 193.571 160.825C193.523 160.471 193.351 160.143 193.084 159.896C192.663 159.6 192.117 159.705 191.617 159.77C190.086 159.958 188.536 159.603 187.255 158.772C186.7 158.407 185.956 157.96 185.439 158.366C185.218 158.611 185.073 158.91 185.019 159.23C184.79 159.805 184.437 160.325 183.983 160.757C183.53 161.188 182.986 161.522 182.388 161.734C181.19 162.153 179.936 162.402 178.664 162.473C178.275 162.554 177.869 162.509 177.509 162.347C176.912 161.994 176.87 160.724 176.118 160.639C175.458 160.566 174.424 161.937 173.978 162.347Z" fill="#3F3D56"/>
<path d="M183.922 172.257C182.371 170.824 181.69 168.746 180.56 166.981C179.79 165.794 178.806 164.749 177.656 163.897C177.077 163.528 176.547 163.093 176.075 162.602C175.676 162.127 175.374 161.494 174.768 161.312C174.518 161.259 174.259 161.266 174.012 161.332C173.765 161.398 173.539 161.52 173.352 161.689C172.982 162.03 172.631 162.39 172.301 162.769C170.52 164.55 167.389 164.798 165.976 166.859C165.595 167.296 165.337 167.82 165.224 168.381C164.818 171.381 165.621 174.418 167.468 176.862C167.826 177.429 168.375 177.859 169.023 178.08C168.935 178.837 169.039 179.603 169.326 180.312C170.104 182.88 171.06 185.395 172.188 187.84C171.918 188.796 171.73 189.772 171.625 190.758C171.331 193.237 171.604 195.753 171.326 198.237C171.1 200.266 170.486 202.242 170.465 204.275C170.465 204.6 170.494 204.985 170.784 205.152C170.939 205.228 171.111 205.263 171.284 205.253L176.454 205.403C179.454 205.489 182.485 205.574 185.439 205.038C185.832 204.982 186.214 204.865 186.57 204.693C187.57 204.153 187.902 202.936 188.062 201.853C188.27 200.447 188.353 199.027 188.309 197.608C188.936 199.519 189.68 201.495 191.571 202.323C192.571 202.762 193.714 202.729 194.811 202.701C197.175 202.599 199.531 202.365 201.867 201.999C202.011 202.016 202.157 202 202.294 201.953C202.431 201.906 202.554 201.829 202.654 201.727C202.754 201.626 202.828 201.503 202.87 201.369C202.913 201.235 202.922 201.094 202.897 200.956L202.922 198.74C202.973 194.239 201.817 189.938 201.367 185.458C201.224 184.045 201.237 182.617 200.88 181.233C200.733 180.653 200.518 180.085 200.388 179.5C200.276 178.928 200.206 178.349 200.178 177.767L199.85 173.304C199.695 171.238 199.472 169.245 199.308 167.184C199.218 165.176 198.916 163.183 198.409 161.235C198.043 160.017 197.282 158.637 195.967 158.487C195.265 158.41 194.584 158.706 193.916 158.913C192.273 159.413 190.511 159.406 188.873 158.893C188.367 158.7 187.839 158.564 187.301 158.487C187.03 158.452 186.754 158.486 186.501 158.587C186.249 158.689 186.029 158.853 185.864 159.063C185.7 159.381 185.624 159.733 185.641 160.086C185.443 164.14 185.078 168.316 183.922 172.257Z" fill="#6C63FF"/>
<path d="M177.16 172.379C175.222 170.407 173.234 168.398 170.738 167.144C169.755 166.649 168.637 166.275 167.548 166.462C166.46 166.649 165.447 167.562 165.497 168.629C165.531 169.291 165.947 169.875 166.077 170.524C166.229 171.255 166.01 172.034 166.245 172.74C166.437 173.205 166.722 173.629 167.086 173.986L170.061 177.391C171.322 178.811 172.583 180.252 174.205 181.234C175.827 182.216 177.929 182.674 179.711 181.976C180.979 181.407 182.033 180.473 182.728 179.302C183.468 178.166 183.989 176.924 184.683 175.751C185.762 173.877 187.186 172.209 188.885 170.829C188.011 170.609 186.914 170.301 186.364 169.611C186.207 169.392 186.073 169.158 185.964 168.913L185.283 167.493C185.052 167.481 184.82 167.516 184.603 167.595C184.386 167.674 184.189 167.795 184.023 167.951C183.731 168.277 183.418 168.585 183.086 168.873C182.493 169.303 181.69 169.42 181.152 169.911C180.944 170.122 180.756 170.35 180.589 170.593C180.182 171.11 179.666 171.536 179.074 171.844C178.483 172.152 177.83 172.334 177.16 172.379Z" fill="#3F3D56"/>
<path d="M189.041 163.893C190.499 161.324 190.432 158.244 190.848 155.342C190.893 154.574 191.172 153.836 191.651 153.22C192.491 152.303 193.975 152.291 195.244 152.408C195.618 152.449 196.084 152.619 196.063 152.98C196.034 153.11 195.969 153.229 195.874 153.325C194.644 154.859 193.921 156.714 193.798 158.65C194.458 159.092 195.479 158.183 196.114 158.65C196.534 158.991 196.341 159.664 196.089 160.151C195.503 161.279 194.899 162.399 194.277 163.511C193.781 164.491 193.133 165.393 192.357 166.186C191.823 166.681 191.197 167.07 190.655 167.557C189.394 168.698 188.633 170.309 187.33 171.421C187.22 171.536 187.071 171.609 186.91 171.628C186.744 171.616 186.588 171.549 186.469 171.437C185.818 170.926 185.278 170.295 184.88 169.582C184.384 168.698 184.46 168.438 185.242 167.813C186.704 166.697 188.129 165.5 189.041 163.893Z" fill="#BE6F72"/>
<path d="M174.722 170.633C174.974 170.783 175.285 170.954 175.563 170.828C175.676 170.762 175.772 170.672 175.844 170.564C176.325 169.945 176.726 169.272 177.038 168.559C177.092 168.459 177.122 168.348 177.126 168.235C177.126 167.975 176.887 167.784 176.664 167.634C175.47 166.9 174.187 166.311 172.844 165.881C171.734 165.475 170.574 165.122 169.397 165.224C168.955 165.252 168.524 165.367 168.129 165.561C167.734 165.755 167.383 166.024 167.099 166.352C166.258 167.395 167.666 167.711 168.548 168.089C170.591 168.986 172.802 169.505 174.722 170.633Z" fill="#6C63FF"/>
<path opacity="0.1" d="M173.398 177.532C173.384 177.625 173.393 177.72 173.423 177.808C173.454 177.897 173.506 177.978 173.575 178.044C173.697 177.468 173.537 176.859 173.663 176.278C173.848 175.406 174.726 174.749 174.802 173.872C173.192 173.568 173.411 176.591 173.398 177.532Z" fill="black"/>
<path opacity="0.2" d="M247.5 145.798V149.795L230.412 150.797L229.895 146.796L247.5 145.798Z" fill="black"/>
<path d="M171.793 152.263C172.86 151.423 172.243 149.661 172.966 148.533C173.386 147.916 174.096 147.592 174.794 147.316C175.636 146.935 176.538 146.694 177.462 146.601C177.925 146.559 178.393 146.617 178.829 146.772C179.266 146.927 179.66 147.176 179.984 147.498C180.257 147.799 180.442 148.164 180.698 148.476C181.016 148.841 181.43 149.116 181.896 149.271C182.362 149.427 182.863 149.458 183.346 149.361C183.905 149.239 184.485 148.829 184.447 148.278C184.384 147.942 184.207 147.636 183.943 147.409L182.741 146.123C181.375 144.662 179.858 143.111 177.853 142.746C176.458 142.491 175.029 142.852 173.684 143.286C173.142 143.46 172.533 143.72 172.381 144.252C172.28 144.617 172.432 145.015 172.344 145.384C172.171 146.119 171.196 146.366 170.742 146.983C170.288 147.6 170.427 148.33 170.297 149.012C170.167 149.694 169.788 150.359 169.742 151.065C169.713 151.492 169.935 152.283 170.431 152.437C170.927 152.591 171.486 151.755 171.793 152.263Z" fill="#3F3D56"/>
<path d="M184.04 147.693C183.685 145.907 182.921 144.221 181.804 142.758C180.81 141.391 179.428 140.331 177.824 139.707C177.022 139.404 176.16 139.281 175.301 139.346C174.443 139.412 173.612 139.664 172.869 140.084C171.766 140.844 170.908 141.889 170.393 143.099C169.305 145.364 168.901 148.131 170.166 150.306C170.671 149.714 171.537 149.982 172.301 149.767C173.26 149.503 174.071 148.886 174.983 148.501C177.736 147.328 181.098 148.277 184.04 147.693Z" fill="#FED253"/>
<path opacity="0.1" d="M170.809 147.567C170.713 146.836 170.65 145.988 171.188 145.469C171.214 145.437 171.248 145.411 171.287 145.395C171.326 145.378 171.368 145.37 171.41 145.371C171.448 145.383 171.483 145.402 171.512 145.427C171.542 145.452 171.566 145.483 171.583 145.517C171.893 145.991 172.158 146.491 172.373 147.011C172.06 146.941 171.732 146.964 171.432 147.076C171.133 147.188 170.875 147.384 170.692 147.64" fill="black"/>
<path opacity="0.1" d="M180.631 145.505L180.48 144.057C180.455 143.937 180.466 143.814 180.509 143.7C180.573 143.604 180.67 143.535 180.784 143.505C180.897 143.475 181.018 143.486 181.123 143.537C181.33 143.648 181.5 143.812 181.615 144.012C181.964 144.531 182.255 145.084 182.48 145.664C181.803 145.538 181.107 145.546 180.434 145.688" fill="black"/>
<path opacity="0.1" d="M184.393 204.304V207.615L181.497 207.802H166.266V204.304H184.393Z" fill="black"/>
<path d="M184.393 204.303V207.802H166.266L118.112 149.555V146.804H128.207L184.393 204.303Z" fill="#F1C0C0"/>
<path opacity="0.1" d="M184.393 204.303V207.802H166.266L118.112 149.555V146.804H128.207L184.393 204.303Z" fill="black"/>
<path opacity="0.1" d="M184.393 204.303V207.802H166.266L118.112 149.555V146.804L166.527 204.303H184.393Z" fill="black"/>
<path d="M124.425 262.685C124.456 262.849 124.452 263.018 124.413 263.181C124.374 263.345 124.301 263.498 124.197 263.633C124.094 263.767 123.963 263.879 123.813 263.963C123.662 264.046 123.496 264.099 123.323 264.117C122.155 264.499 120.915 264.876 120.087 265.74C119.259 266.605 119.096 268.208 120.087 268.91C120.594 269.205 121.176 269.358 121.768 269.352C123.672 269.478 125.656 269.454 127.383 268.674C128.619 268.123 129.783 267.181 131.14 267.266C131.842 267.307 132.59 267.623 133.217 267.315C133.843 267.007 134.019 266.146 134.023 265.428C134.039 263.928 133.805 262.436 133.33 261.009C133.267 260.814 130.594 260.664 130.275 260.603L127.034 260.197C126.421 260.12 125.097 259.673 124.614 260.169C124.13 260.664 124.425 262.096 124.425 262.685Z" fill="#6C63FF"/>
<path d="M143.761 252.555C143.898 253.285 144.121 253.999 144.425 254.681C144.875 255.785 145.451 256.958 146.552 257.493C147.552 257.976 148.779 257.802 149.796 257.343C150.221 257.173 150.593 256.901 150.876 256.552C151.204 256 151.351 255.364 151.297 254.73C151.297 253.159 151.2 251.536 150.456 250.14C149.817 248.923 148.703 247.876 148.687 246.528L144.858 247.243C144.653 247.262 144.458 247.336 144.295 247.458C144.174 247.581 144.089 247.734 144.051 247.9C143.642 249.419 143.544 251 143.761 252.555Z" fill="#6C63FF"/>
<path d="M98.0401 214.003C97.8804 215.31 97.9477 216.71 98.6537 217.838C99.3598 218.966 100.848 219.713 102.134 219.262C102.199 219.246 102.261 219.217 102.315 219.177C102.37 219.138 102.415 219.088 102.449 219.031C102.483 218.894 102.463 218.749 102.394 218.625C101.826 217.162 101.873 215.543 102.524 214.112C102.608 213.926 102.789 213.707 102.987 213.78C103.069 213.82 103.136 213.886 103.176 213.966C103.379 214.306 103.481 214.694 103.47 215.086C103.411 215.442 103.399 215.803 103.436 216.162C103.516 216.511 103.903 216.84 104.239 216.689C104.336 216.632 104.42 216.556 104.486 216.466C104.552 216.376 104.598 216.274 104.622 216.166C105.559 213.548 105.134 210.687 104.706 207.948C104.709 207.885 104.698 207.822 104.674 207.764C104.65 207.706 104.612 207.653 104.565 207.61C104.517 207.567 104.46 207.535 104.398 207.515C104.336 207.496 104.27 207.49 104.205 207.498C102.222 207.307 101.137 206.848 100.003 208.63C99.0277 210.131 98.0401 212.197 98.0401 214.003Z" fill="#6C63FF"/>
<path d="M121.23 207.343C120.642 209.705 120.05 212.095 120.012 214.522C120.022 216.034 120.14 217.543 120.365 219.039L120.806 222.553C120.957 223.738 121.104 224.919 121.319 226.092C121.455 226.696 121.53 227.312 121.542 227.93C121.5 228.54 121.4 229.144 121.243 229.736C120.979 230.979 120.831 232.242 120.802 233.51C120.756 235.539 121.016 237.568 121.18 239.597C121.507 243.641 121.458 247.704 121.033 251.739C120.863 252.828 121.108 253.94 121.722 254.868C121.971 255.161 122.177 255.486 122.332 255.834C122.647 256.763 121.911 257.692 121.722 258.646C121.601 259.39 121.791 260.149 122.25 260.758C122.708 261.367 123.398 261.775 124.168 261.893C127.53 262.278 130.985 262.104 134.015 263.589C134.334 262.688 133.637 261.665 133.956 260.748C134.158 260.18 134.713 259.811 135.091 259.332C135.599 258.602 135.852 257.735 135.814 256.856C135.829 255.71 135.618 254.571 135.192 253.5C134.835 252.608 134.322 251.727 134.351 250.769C134.351 250.298 134.524 249.803 134.326 249.369C134.191 249.12 134.007 248.898 133.784 248.716C132.528 247.387 131.756 245.698 131.586 243.907C131.422 242.129 131.481 240.339 131.762 238.575C131.968 236.894 132.246 235.121 133.351 233.81C132.838 229.836 133.14 225.803 134.238 221.94C134.347 221.583 134.519 221.169 134.898 221.084C135.048 221.069 135.2 221.089 135.34 221.143C135.481 221.197 135.606 221.282 135.705 221.392C136.364 221.989 136.68 222.853 136.965 223.681C137.281 224.578 137.6 225.536 137.36 226.453C137.26 226.859 137.058 227.216 136.94 227.605C136.684 228.388 136.729 229.234 137.066 229.987C137.23 230.263 137.334 230.568 137.369 230.884C137.33 231.156 137.245 231.419 137.117 231.664C136.961 232.144 136.911 232.65 136.971 233.15C137.031 233.65 137.2 234.132 137.465 234.565C138.001 235.427 138.662 236.21 139.428 236.89C139.062 238.448 139.157 240.073 139.701 241.582C139.741 241.65 139.766 241.724 139.775 241.802C139.784 241.879 139.778 241.957 139.756 242.032C139.68 242.186 139.487 242.243 139.336 242.353C138.915 242.685 139.176 243.314 139.458 243.749C140.229 244.94 141.081 246.082 142.009 247.166C142.849 248.135 142.773 250.006 144.026 250.355C144.552 250.465 145.097 250.465 145.623 250.355C146.858 250.173 148.237 249.828 148.842 248.773C149.09 248.338 149.191 247.811 149.578 247.486C149.964 247.162 150.464 247.105 150.679 246.715C150.893 246.326 150.653 245.814 150.725 245.364C150.796 244.913 151.204 244.552 151.334 244.077C151.645 242.982 150.321 242.081 150.141 240.961C149.88 239.337 151.998 238.12 151.91 236.497C151.725 232.97 151.607 229.427 151.418 225.901C151.181 222.742 151.147 219.572 151.317 216.409C151.465 214.441 151.738 212.379 150.99 210.549C149.914 207.968 146.947 206.519 144.076 206.243C141.206 205.967 138.344 206.625 135.499 207.055C130.776 207.758 125.979 207.855 121.23 207.343Z" fill="#3F3D56"/>
<path d="M129.762 168.556C133.48 168.556 136.495 165.645 136.495 162.055C136.495 158.464 133.48 155.554 129.762 155.554C126.044 155.554 123.029 158.464 123.029 162.055C123.029 165.645 126.044 168.556 129.762 168.556Z" fill="#FBBEBE"/>
<path d="M127.022 169.769C126.793 170.284 126.408 170.719 125.919 171.018C125.429 171.317 124.857 171.466 124.277 171.445C124.034 172.419 124.618 173.401 125.286 174.168C126.674 175.728 128.467 176.901 130.481 177.568C132.494 178.235 134.656 178.371 136.743 177.963C137.555 177.822 138.325 177.512 138.999 177.054C139.909 176.32 140.519 175.299 140.723 174.172C140.916 173.053 140.971 171.916 140.886 170.784C140.91 170.56 140.844 170.337 140.701 170.159C140.533 170.033 140.326 169.967 140.113 169.972C138.693 169.85 137.209 169.798 135.961 169.124C134.713 168.45 133.826 166.929 134.427 165.679C134.33 165.874 131.876 165.967 131.552 166.007C130.539 166.145 129.527 166.3 128.518 166.478C128.033 166.504 127.554 166.591 127.093 166.738C126.484 167.042 126.711 166.892 126.854 167.444C127.068 168.288 127.383 168.893 127.022 169.769Z" fill="#FBBEBE"/>
<path d="M132.145 173.722C131.238 173.732 130.333 173.635 129.451 173.434C128.56 173.233 127.775 172.727 127.24 172.009C126.929 171.555 126.728 170.983 126.232 170.727C125.421 170.321 124.496 171.007 123.849 171.636C123.26 172.256 122.577 172.787 121.823 173.211C120.924 173.669 119.873 173.832 119.024 174.371C118.361 174.855 117.792 175.449 117.343 176.124L111.388 183.957C108.997 187.106 106.916 190.486 104.785 193.81C102.94 196.687 101.974 199.998 100.583 203.103C100.473 203.293 100.427 203.512 100.452 203.728C100.503 203.939 100.768 204.109 100.953 203.988C100.326 204.588 100.877 205.611 100.73 206.455C100.563 207.046 100.214 207.573 99.7296 207.969C100.655 207.852 101.594 207.895 102.503 208.094C103.444 208.352 104.331 208.764 105.126 209.312C105.634 209.235 105.588 208.362 105.966 208.038C106.193 207.847 106.53 207.871 106.828 207.814C107.95 207.603 108.396 206.301 109.257 205.566C109.976 204.953 110.993 204.755 111.753 204.178C112.989 203.241 113.254 201.573 113.901 200.189C114.452 199.016 115.317 197.994 115.801 196.793C116.116 196.013 116.267 195.169 116.717 194.451C117.436 193.29 118.789 192.674 120.079 192.118C120.894 191.765 121.76 191.399 122.638 191.456C122.592 193.343 122.344 195.202 122.769 197.044C122.916 197.693 123.122 198.327 123.298 198.972C124.101 201.877 124.29 204.905 124.328 207.9C126.259 207.473 128.231 207.245 130.212 207.218C131.771 207.173 133.326 207.368 134.885 207.34C136.734 207.307 138.562 206.962 140.412 206.84C142.261 206.719 144.194 206.84 145.829 207.652C145.696 205.08 145.771 202.502 146.052 199.942L146.497 195.908C146.598 194.736 146.784 193.572 147.056 192.426C147.3 191.501 147.653 190.608 147.922 189.687C148.867 186.44 148.695 182.975 148.514 179.594C148.422 177.857 147.728 176.149 146.913 174.603C146.618 174.028 146.281 173.475 145.904 172.947C144.919 171.636 143.606 170.588 142.088 169.899C140.57 169.211 138.895 168.905 137.222 169.011C137.008 169.017 136.797 169.061 136.6 169.14C136.245 169.36 135.968 169.678 135.805 170.053C134.936 171.563 133.674 172.827 132.145 173.722Z" fill="#3F3D56"/>
<path d="M123.84 164.21C124.029 163.804 124.538 163.654 124.849 163.329C125.446 162.712 125.177 161.726 125.269 160.894C125.421 159.677 126.467 158.658 127.665 158.224C128.886 157.845 130.186 157.766 131.447 157.993C132.054 158.035 132.641 158.224 133.154 158.54C133.372 158.695 133.574 158.894 133.78 159.036C134.155 159.255 134.604 159.323 135.031 159.227C135.459 159.131 135.83 158.877 136.066 158.52C134.578 156.791 132.931 154.965 130.67 154.434C129.894 154.281 129.104 154.209 128.312 154.219C127.266 154.198 126.185 154.182 125.219 154.568C123.903 155.091 122.979 156.296 122.504 157.595C122.089 158.911 121.867 160.277 121.844 161.653C121.758 162.571 121.758 163.495 121.844 164.413C122.007 165.666 122.489 166.861 123.248 167.89C123.35 168.05 123.496 168.181 123.668 168.268C125.584 169.079 123.685 164.547 123.84 164.21Z" fill="#3F3D56"/>
<path d="M135.847 157.518C135.616 155.607 134.204 154.028 132.704 152.758C131.495 151.656 130.054 150.819 128.48 150.303C126.896 149.852 125.072 149.949 123.714 150.863C122.622 151.597 121.928 152.766 121.394 153.943C120.693 155.331 120.346 156.862 120.382 158.407C120.487 159.941 121.26 161.495 122.638 162.27C123.134 161.564 123.996 161.199 124.824 160.911C128.432 159.589 132.112 158.456 135.847 157.518Z" fill="#FED253"/>
<path opacity="0.1" d="M123.101 156.722C123.235 156.722 123.323 156.856 123.391 156.965C123.733 157.48 124.027 158.023 124.269 158.589C123.777 158.69 122.933 158.804 122.689 158.386C122.559 158.175 122.714 156.702 123.101 156.722Z" fill="black"/>
<path opacity="0.1" d="M132.679 155.805C132.578 155.898 132.46 155.707 132.46 155.569V153.995C132.457 153.951 132.468 153.907 132.489 153.869C132.507 153.85 132.528 153.834 132.552 153.823C132.576 153.812 132.602 153.805 132.628 153.804C132.969 153.767 133.25 154.048 133.469 154.315C133.8 154.749 134.089 155.213 134.33 155.699L132.553 155.646" fill="black"/>
<path d="M154.865 181.879C155.251 181.524 155.664 181.197 156.1 180.901C157.264 180.15 158.672 179.854 159.979 179.375C161.286 178.896 162.614 178.121 163.123 176.863C163.377 176.076 163.46 175.247 163.367 174.428C163.379 174.085 163.316 173.744 163.182 173.426C163.022 173.145 162.794 172.905 162.518 172.728C160.744 171.462 158.365 171.36 156.163 171.49C151.308 171.781 146.549 172.928 142.122 174.874C141.888 174.949 141.683 175.091 141.534 175.28C141.447 175.456 141.408 175.65 141.42 175.844C141.342 177.041 141.503 178.241 141.895 179.379C142.475 180.824 143.669 181.988 144.169 183.461C144.396 184.123 144.471 184.825 144.669 185.491C144.831 186.178 145.252 186.782 145.85 187.187C147.51 188.145 149.077 186.858 150.229 185.86L154.865 181.879Z" fill="#3F3D56"/>
<path d="M133.124 187.499L130.993 183.011C130.681 182.389 130.411 181.748 130.186 181.092C129.943 180.308 129.825 179.497 129.598 178.71C128.85 176.088 126.963 173.905 126.043 171.336C125.984 171.104 125.866 170.89 125.698 170.715C125.564 170.623 125.41 170.561 125.248 170.533C125.086 170.505 124.92 170.512 124.761 170.553C123.475 170.768 122.47 171.713 121.294 172.249C120.747 172.492 120.159 172.655 119.612 172.935C119.339 173.06 119.097 173.24 118.903 173.463C118.709 173.687 118.566 173.948 118.486 174.229C118.356 174.85 118.675 175.447 118.944 176.051C120.087 178.543 120.348 181.327 120.398 184.054C120.436 185.888 120.34 187.857 119.217 189.33C117.061 192.17 118.44 196.342 119.247 199.779C119.343 200.185 119.457 200.624 119.524 201.054C119.595 201.592 119.628 202.134 119.621 202.677C119.621 204.499 119.516 206.378 118.726 208.03C119.506 208.43 120.365 208.666 121.247 208.719C123.688 209.02 126.138 209.231 128.598 209.353C129.369 209.423 130.146 209.384 130.905 209.239C131.807 209.004 132.602 208.485 133.164 207.765C133.727 207.044 134.025 206.164 134.011 205.262C134.145 206.386 134.393 207.608 135.238 208.387C136.083 209.166 137.314 209.284 138.461 209.344C141.7 209.51 144.946 209.422 148.17 209.081C148.375 209.072 148.578 209.026 148.766 208.947C149.388 208.646 149.422 207.819 149.372 207.153C149.279 205.907 149.183 204.661 149.027 203.424C148.895 202.635 148.828 201.837 148.825 201.037C148.889 200.215 149.03 199.4 149.246 198.603C149.809 196.07 150.254 193.485 150.065 190.892C149.99 190.26 149.964 189.624 149.985 188.989C150.094 187.556 150.876 186.193 150.729 184.768C150.309 180.58 149.968 176.283 148.758 172.241C148.539 171.519 148.262 170.743 147.611 170.329C146.77 169.786 145.589 170.07 144.627 169.725C144.175 169.522 143.746 169.276 143.345 168.99C142.474 168.464 141.476 168.168 140.449 168.13C139.676 168.102 138.814 168.268 138.348 168.869C138.132 169.207 137.989 169.584 137.928 169.976C137.318 172.452 136.604 174.899 135.889 177.346L135.204 179.692L133.368 185.99C133.187 186.659 133.309 186.866 133.124 187.499Z" fill="#6C63FF"/>
<path d="M143.87 162.927L184.523 204.178V207.676H166.397L135.847 169.176" fill="#F1C0C0"/>
<path opacity="0.1" d="M143.87 162.927L184.523 204.178V207.676H166.397L135.847 169.176" fill="black"/>
<path opacity="0.1" d="M136.495 168.633L136.625 168.677L166.657 204.178H184.523V207.676H166.397L135.847 169.177L136.495 168.633Z" fill="black"/>
<path d="M141.172 169.502C139.701 170.122 138.066 170.918 137.625 172.411C137.538 172.673 137.519 172.952 137.571 173.223C137.678 173.541 137.883 173.821 138.158 174.024C138.434 174.228 138.767 174.346 139.113 174.363C139.805 174.379 140.493 174.258 141.134 174.006L149.813 171.238C150.048 171.165 150.317 171.056 150.376 170.833C150.391 170.692 150.362 170.551 150.292 170.427C150.023 169.794 149.758 168.499 149.195 168.057C148.733 167.7 147.817 167.826 147.258 167.834C145.106 167.85 143.084 168.69 141.172 169.502Z" fill="#6C63FF"/>
<path d="M148.909 171.567C150.371 171.563 151.825 171.78 153.217 172.212C154.615 172.65 155.854 173.467 156.785 174.566C157.056 174.873 157.249 175.237 157.348 175.629C157.432 176.035 158.802 176.278 158.5 176.554C159.42 176.412 159.202 176.83 160.135 176.822C161.068 176.814 162.076 176.583 162.635 175.864C163.024 175.274 163.197 174.576 163.127 173.88C163.139 173.398 163.045 172.919 162.85 172.476C162.429 171.624 161.463 171.165 160.572 170.771L153.066 167.456C152.63 167.232 152.163 167.072 151.679 166.981C151.272 166.944 150.861 166.954 150.456 167.01L147.056 167.387C147.8 167.852 148.405 168.495 148.812 169.255C149.22 170.014 149.416 170.863 149.38 171.717" fill="#3F3D56"/>
</g>
<defs>
<clipPath id="clip0_512_10469">
<rect width="495" height="294" fill="white" transform="translate(0 0.5)"/>
</clipPath>
</defs>
</svg>
