<svg width="327" height="162" viewBox="0 0 327 162" fill="none" xmlns="http://www.w3.org/2000/svg">
<rect width="327" height="162" fill="#EFF3F8"/>
<path d="M171.5 80.5H155.5C154.395 80.5 153.5 79.6046 153.5 78.5V78.1923V62.5C153.5 61.3954 154.395 60.5 155.5 60.5H166.192H170.808H171.5C172.605 60.5 173.5 61.3954 173.5 62.5V75.5V78.5C173.5 79.6046 172.605 80.5 171.5 80.5Z" fill="#E3F2FD"/>
<path d="M153.5 78.1923V78.5C153.5 79.6046 154.395 80.5 155.5 80.5H171.5C172.605 80.5 173.5 79.6046 173.5 78.5V75.5M153.5 78.1923V62.5C153.5 61.3954 154.395 60.5 155.5 60.5H166.192M153.5 78.1923L159.654 72.8077L162.731 75.5L168.5 70.1154L173.5 75.5M173.5 75.5V62.5C173.5 61.3954 172.605 60.5 171.5 60.5H170.808M170.808 60.5V66.6538L168.5 64.3462L166.192 66.6538V60.5M170.808 60.5H166.192" stroke="#78867F"/>
<path d="M141.752 96.5H140.384L136.268 90.272V96.5H134.9V88.148H136.268L140.384 94.364V88.148H141.752V96.5ZM146.416 96.608C145.792 96.608 145.228 96.468 144.724 96.188C144.22 95.9 143.824 95.5 143.536 94.988C143.248 94.468 143.104 93.868 143.104 93.188C143.104 92.516 143.252 91.92 143.548 91.4C143.844 90.88 144.248 90.48 144.76 90.2C145.272 89.92 145.844 89.78 146.476 89.78C147.108 89.78 147.68 89.92 148.192 90.2C148.704 90.48 149.108 90.88 149.404 91.4C149.7 91.92 149.848 92.516 149.848 93.188C149.848 93.86 149.696 94.456 149.392 94.976C149.088 95.496 148.672 95.9 148.144 96.188C147.624 96.468 147.048 96.608 146.416 96.608ZM146.416 95.42C146.768 95.42 147.096 95.336 147.4 95.168C147.712 95 147.964 94.748 148.156 94.412C148.348 94.076 148.444 93.668 148.444 93.188C148.444 92.708 148.352 92.304 148.168 91.976C147.984 91.64 147.74 91.388 147.436 91.22C147.132 91.052 146.804 90.968 146.452 90.968C146.1 90.968 145.772 91.052 145.468 91.22C145.172 91.388 144.936 91.64 144.76 91.976C144.584 92.304 144.496 92.708 144.496 93.188C144.496 93.9 144.676 94.452 145.036 94.844C145.404 95.228 145.864 95.42 146.416 95.42ZM155.686 88.16V96.5H154.318V88.16H155.686ZM165.486 89.78C166.006 89.78 166.47 89.888 166.878 90.104C167.294 90.32 167.618 90.64 167.85 91.064C168.09 91.488 168.21 92 168.21 92.6V96.5H166.854V92.804C166.854 92.212 166.706 91.76 166.41 91.448C166.114 91.128 165.71 90.968 165.198 90.968C164.686 90.968 164.278 91.128 163.974 91.448C163.678 91.76 163.53 92.212 163.53 92.804V96.5H162.174V92.804C162.174 92.212 162.026 91.76 161.73 91.448C161.434 91.128 161.03 90.968 160.518 90.968C160.006 90.968 159.598 91.128 159.294 91.448C158.998 91.76 158.85 92.212 158.85 92.804V96.5H157.482V89.888H158.85V90.644C159.074 90.372 159.358 90.16 159.702 90.008C160.046 89.856 160.414 89.78 160.806 89.78C161.334 89.78 161.806 89.892 162.222 90.116C162.638 90.34 162.958 90.664 163.182 91.088C163.382 90.688 163.694 90.372 164.118 90.14C164.542 89.9 164.998 89.78 165.486 89.78ZM169.495 93.164C169.495 92.5 169.631 91.912 169.903 91.4C170.183 90.888 170.559 90.492 171.031 90.212C171.511 89.924 172.039 89.78 172.615 89.78C173.135 89.78 173.587 89.884 173.971 90.092C174.363 90.292 174.675 90.544 174.907 90.848V89.888H176.287V96.5H174.907V95.516C174.675 95.828 174.359 96.088 173.959 96.296C173.559 96.504 173.103 96.608 172.591 96.608C172.023 96.608 171.503 96.464 171.031 96.176C170.559 95.88 170.183 95.472 169.903 94.952C169.631 94.424 169.495 93.828 169.495 93.164ZM174.907 93.188C174.907 92.732 174.811 92.336 174.619 92C174.435 91.664 174.191 91.408 173.887 91.232C173.583 91.056 173.255 90.968 172.903 90.968C172.551 90.968 172.223 91.056 171.919 91.232C171.615 91.4 171.367 91.652 171.175 91.988C170.991 92.316 170.899 92.708 170.899 93.164C170.899 93.62 170.991 94.02 171.175 94.364C171.367 94.708 171.615 94.972 171.919 95.156C172.231 95.332 172.559 95.42 172.903 95.42C173.255 95.42 173.583 95.332 173.887 95.156C174.191 94.98 174.435 94.724 174.619 94.388C174.811 94.044 174.907 93.644 174.907 93.188ZM180.748 89.78C181.26 89.78 181.712 89.884 182.104 90.092C182.504 90.292 182.816 90.544 183.04 90.848V89.888H184.42V96.608C184.42 97.216 184.292 97.756 184.036 98.228C183.78 98.708 183.408 99.084 182.92 99.356C182.44 99.628 181.864 99.764 181.192 99.764C180.296 99.764 179.552 99.552 178.96 99.128C178.368 98.712 178.032 98.144 177.952 97.424H179.308C179.412 97.768 179.632 98.044 179.968 98.252C180.312 98.468 180.72 98.576 181.192 98.576C181.744 98.576 182.188 98.408 182.524 98.072C182.868 97.736 183.04 97.248 183.04 96.608V95.504C182.808 95.816 182.492 96.08 182.092 96.296C181.7 96.504 181.252 96.608 180.748 96.608C180.172 96.608 179.644 96.464 179.164 96.176C178.692 95.88 178.316 95.472 178.036 94.952C177.764 94.424 177.628 93.828 177.628 93.164C177.628 92.5 177.764 91.912 178.036 91.4C178.316 90.888 178.692 90.492 179.164 90.212C179.644 89.924 180.172 89.78 180.748 89.78ZM183.04 93.188C183.04 92.732 182.944 92.336 182.752 92C182.568 91.664 182.324 91.408 182.02 91.232C181.716 91.056 181.388 90.968 181.036 90.968C180.684 90.968 180.356 91.056 180.052 91.232C179.748 91.4 179.5 91.652 179.308 91.988C179.124 92.316 179.032 92.708 179.032 93.164C179.032 93.62 179.124 94.02 179.308 94.364C179.5 94.708 179.748 94.972 180.052 95.156C180.364 95.332 180.692 95.42 181.036 95.42C181.388 95.42 181.716 95.332 182.02 95.156C182.324 94.98 182.568 94.724 182.752 94.388C182.944 94.044 183.04 93.644 183.04 93.188ZM192.276 93.032C192.276 93.28 192.26 93.504 192.228 93.704H187.176C187.216 94.232 187.412 94.656 187.764 94.976C188.116 95.296 188.548 95.456 189.06 95.456C189.796 95.456 190.316 95.148 190.62 94.532H192.096C191.896 95.14 191.532 95.64 191.004 96.032C190.484 96.416 189.836 96.608 189.06 96.608C188.428 96.608 187.86 96.468 187.356 96.188C186.86 95.9 186.468 95.5 186.18 94.988C185.9 94.468 185.76 93.868 185.76 93.188C185.76 92.508 185.896 91.912 186.168 91.4C186.448 90.88 186.836 90.48 187.332 90.2C187.836 89.92 188.412 89.78 189.06 89.78C189.684 89.78 190.24 89.916 190.728 90.188C191.216 90.46 191.596 90.844 191.868 91.34C192.14 91.828 192.276 92.392 192.276 93.032ZM190.848 92.6C190.84 92.096 190.66 91.692 190.308 91.388C189.956 91.084 189.52 90.932 189 90.932C188.528 90.932 188.124 91.084 187.788 91.388C187.452 91.684 187.252 92.088 187.188 92.6H190.848Z" fill="#78867F"/>
</svg>
