<svg width="269" height="23" viewBox="0 0 269 23" fill="none" xmlns="http://www.w3.org/2000/svg">
<path d="M177.88 17L175.836 13.29H175.262V17H172.868V7.172H176.886C177.661 7.172 178.319 7.30733 178.86 7.578C179.411 7.84867 179.821 8.222 180.092 8.698C180.363 9.16467 180.498 9.68733 180.498 10.266C180.498 10.9193 180.311 11.5027 179.938 12.016C179.574 12.5293 179.033 12.8933 178.314 13.108L180.582 17H177.88ZM175.262 11.596H176.746C177.185 11.596 177.511 11.4887 177.726 11.274C177.95 11.0593 178.062 10.756 178.062 10.364C178.062 9.99067 177.95 9.69667 177.726 9.482C177.511 9.26733 177.185 9.16 176.746 9.16H175.262V11.596ZM184.353 7.172V13.052C184.353 13.64 184.497 14.0927 184.787 14.41C185.076 14.7273 185.501 14.886 186.061 14.886C186.621 14.886 187.05 14.7273 187.349 14.41C187.647 14.0927 187.797 13.64 187.797 13.052V7.172H190.191V13.038C190.191 13.9153 190.004 14.6573 189.631 15.264C189.257 15.8707 188.753 16.328 188.119 16.636C187.493 16.944 186.793 17.098 186.019 17.098C185.244 17.098 184.549 16.9487 183.933 16.65C183.326 16.342 182.845 15.8847 182.491 15.278C182.136 14.662 181.959 13.9153 181.959 13.038V7.172H184.353ZM197.99 15.264H194.322L193.734 17H191.228L194.784 7.172H197.556L201.112 17H198.578L197.99 15.264ZM197.374 13.416L196.156 9.818L194.952 13.416H197.374ZM210.986 17H208.592L204.588 10.938V17H202.194V7.172H204.588L208.592 13.262V7.172H210.986V17ZM219.246 10.28C219.068 9.95333 218.812 9.706 218.476 9.538C218.149 9.36067 217.762 9.272 217.314 9.272C216.539 9.272 215.918 9.52867 215.452 10.042C214.985 10.546 214.752 11.2227 214.752 12.072C214.752 12.9773 214.994 13.6867 215.48 14.2C215.974 14.704 216.651 14.956 217.51 14.956C218.098 14.956 218.592 14.8067 218.994 14.508C219.404 14.2093 219.703 13.78 219.89 13.22H216.852V11.456H222.06V13.682C221.882 14.2793 221.579 14.8347 221.15 15.348C220.73 15.8613 220.193 16.2767 219.54 16.594C218.886 16.9113 218.149 17.07 217.328 17.07C216.357 17.07 215.489 16.86 214.724 16.44C213.968 16.0107 213.375 15.418 212.946 14.662C212.526 13.906 212.316 13.0427 212.316 12.072C212.316 11.1013 212.526 10.238 212.946 9.482C213.375 8.71667 213.968 8.124 214.724 7.704C215.48 7.27467 216.343 7.06 217.314 7.06C218.49 7.06 219.479 7.34467 220.282 7.914C221.094 8.48333 221.63 9.272 221.892 10.28H219.246ZM232.05 17L228.746 12.66V17H226.352V7.172H228.746V11.484L232.022 7.172H234.836L231.028 11.988L234.976 17H232.05ZM238.508 9.09V11.078H241.714V12.926H238.508V15.082H242.134V17H236.114V7.172H242.134V9.09H238.508ZM246.082 15.152H249.218V17H243.688V7.172H246.082V15.152ZM256.478 15.264H252.81L252.222 17H249.716L253.272 7.172H256.044L259.6 17H257.066L256.478 15.264ZM255.862 13.416L254.644 9.818L253.44 13.416H255.862ZM264.238 17.098C263.52 17.098 262.876 16.9813 262.306 16.748C261.737 16.5147 261.28 16.1693 260.934 15.712C260.598 15.2547 260.421 14.704 260.402 14.06H262.95C262.988 14.424 263.114 14.704 263.328 14.9C263.543 15.0867 263.823 15.18 264.168 15.18C264.523 15.18 264.803 15.1007 265.008 14.942C265.214 14.774 265.316 14.5453 265.316 14.256C265.316 14.0133 265.232 13.8127 265.064 13.654C264.906 13.4953 264.705 13.3647 264.462 13.262C264.229 13.1593 263.893 13.0427 263.454 12.912C262.82 12.716 262.302 12.52 261.9 12.324C261.499 12.128 261.154 11.8387 260.864 11.456C260.575 11.0733 260.43 10.574 260.43 9.958C260.43 9.04333 260.762 8.32933 261.424 7.816C262.087 7.29333 262.95 7.032 264.014 7.032C265.097 7.032 265.97 7.29333 266.632 7.816C267.295 8.32933 267.65 9.048 267.696 9.972H265.106C265.088 9.65467 264.971 9.40733 264.756 9.23C264.542 9.04333 264.266 8.95 263.93 8.95C263.641 8.95 263.408 9.02933 263.23 9.188C263.053 9.33733 262.964 9.55667 262.964 9.846C262.964 10.1633 263.114 10.4107 263.412 10.588C263.711 10.7653 264.178 10.9567 264.812 11.162C265.447 11.3767 265.96 11.582 266.352 11.778C266.754 11.974 267.099 12.2587 267.388 12.632C267.678 13.0053 267.822 13.486 267.822 14.074C267.822 14.634 267.678 15.1427 267.388 15.6C267.108 16.0573 266.698 16.4213 266.156 16.692C265.615 16.9627 264.976 17.098 264.238 17.098Z" fill="#001ED2"/>
<path d="M9.1 1.344C11.172 1.344 12.9827 1.75467 14.532 2.576C16.0813 3.39733 17.276 4.55467 18.116 6.048C18.9747 7.52267 19.404 9.23067 19.404 11.172C19.404 13.0947 18.9747 14.8027 18.116 16.296C17.276 17.7893 16.072 18.9467 14.504 19.768C12.9547 20.5893 11.1533 21 9.1 21H1.736V1.344H9.1ZM8.792 16.856C10.6027 16.856 12.012 16.3613 13.02 15.372C14.028 14.3827 14.532 12.9827 14.532 11.172C14.532 9.36133 14.028 7.952 13.02 6.944C12.012 5.936 10.6027 5.432 8.792 5.432H6.524V16.856H8.792ZM21.1278 13.16C21.1278 11.5547 21.4264 10.1453 22.0238 8.932C22.6398 7.71867 23.4704 6.78533 24.5158 6.132C25.5611 5.47867 26.7278 5.152 28.0158 5.152C29.1171 5.152 30.0784 5.376 30.8998 5.824C31.7398 6.272 32.3838 6.86 32.8318 7.588V5.376H37.6198V21H32.8318V18.788C32.3651 19.516 31.7118 20.104 30.8718 20.552C30.0504 21 29.0891 21.224 27.9878 21.224C26.7184 21.224 25.5611 20.8973 24.5158 20.244C23.4704 19.572 22.6398 18.6293 22.0238 17.416C21.4264 16.184 21.1278 14.7653 21.1278 13.16ZM32.8318 13.188C32.8318 11.9933 32.4958 11.0507 31.8238 10.36C31.1704 9.66933 30.3678 9.324 29.4158 9.324C28.4638 9.324 27.6518 9.66933 26.9798 10.36C26.3264 11.032 25.9998 11.9653 25.9998 13.16C25.9998 14.3547 26.3264 15.3067 26.9798 16.016C27.6518 16.7067 28.4638 17.052 29.4158 17.052C30.3678 17.052 31.1704 16.7067 31.8238 16.016C32.4958 15.3253 32.8318 14.3827 32.8318 13.188ZM47.4397 21.224C46.077 21.224 44.8637 20.9907 43.7997 20.524C42.7357 20.0573 41.8957 19.4227 41.2797 18.62C40.6637 17.7987 40.3183 16.884 40.2437 15.876H44.9757C45.0317 16.4173 45.2837 16.856 45.7317 17.192C46.1797 17.528 46.7303 17.696 47.3837 17.696C47.981 17.696 48.4383 17.584 48.7557 17.36C49.0917 17.1173 49.2597 16.8093 49.2597 16.436C49.2597 15.988 49.0263 15.6613 48.5597 15.456C48.093 15.232 47.337 14.9893 46.2917 14.728C45.1717 14.4667 44.2383 14.196 43.4917 13.916C42.745 13.6173 42.101 13.16 41.5597 12.544C41.0183 11.9093 40.7477 11.06 40.7477 9.996C40.7477 9.1 40.9903 8.288 41.4757 7.56C41.9797 6.81333 42.7077 6.22533 43.6597 5.796C44.6303 5.36667 45.7783 5.152 47.1037 5.152C49.0637 5.152 50.6037 5.63733 51.7237 6.608C52.8623 7.57867 53.5157 8.86667 53.6837 10.472H49.2597C49.185 9.93067 48.9423 9.50133 48.5317 9.184C48.1397 8.86667 47.617 8.708 46.9637 8.708C46.4037 8.708 45.9743 8.82 45.6757 9.044C45.377 9.24933 45.2277 9.53867 45.2277 9.912C45.2277 10.36 45.461 10.696 45.9277 10.92C46.413 11.144 47.1597 11.368 48.1677 11.592C49.325 11.8907 50.2677 12.1893 50.9957 12.488C51.7237 12.768 52.3583 13.2347 52.8997 13.888C53.4597 14.5227 53.749 15.3813 53.7677 16.464C53.7677 17.3787 53.5063 18.2 52.9837 18.928C52.4797 19.6373 51.7423 20.1973 50.7717 20.608C49.8197 21.0187 48.709 21.224 47.4397 21.224ZM66.3009 5.208C68.0929 5.208 69.5303 5.80533 70.6129 7C71.6956 8.176 72.2369 9.8 72.2369 11.872V21H67.4769V12.516C67.4769 11.4707 67.2063 10.6587 66.6649 10.08C66.1236 9.50133 65.3956 9.212 64.4809 9.212C63.5663 9.212 62.8383 9.50133 62.2969 10.08C61.7556 10.6587 61.4849 11.4707 61.4849 12.516V21H56.6969V0.28H61.4849V7.476C61.9703 6.78533 62.6329 6.23467 63.4729 5.824C64.3129 5.41333 65.2556 5.208 66.3009 5.208ZM80.3521 7.588C80.8001 6.86 81.4441 6.272 82.2841 5.824C83.1241 5.376 84.0855 5.152 85.1681 5.152C86.4561 5.152 87.6228 5.47867 88.6681 6.132C89.7135 6.78533 90.5348 7.71867 91.1321 8.932C91.7481 10.1453 92.0561 11.5547 92.0561 13.16C92.0561 14.7653 91.7481 16.184 91.1321 17.416C90.5348 18.6293 89.7135 19.572 88.6681 20.244C87.6228 20.8973 86.4561 21.224 85.1681 21.224C84.0668 21.224 83.1055 21.0093 82.2841 20.58C81.4628 20.132 80.8188 19.544 80.3521 18.816V21H75.5641V0.28H80.3521V7.588ZM87.1841 13.16C87.1841 11.9653 86.8481 11.032 86.1761 10.36C85.5228 9.66933 84.7108 9.324 83.7401 9.324C82.7881 9.324 81.9761 9.66933 81.3041 10.36C80.6508 11.0507 80.3241 11.9933 80.3241 13.188C80.3241 14.3827 80.6508 15.3253 81.3041 16.016C81.9761 16.7067 82.7881 17.052 83.7401 17.052C84.6921 17.052 85.5041 16.7067 86.1761 16.016C86.8481 15.3067 87.1841 14.3547 87.1841 13.16ZM101.68 21.224C100.149 21.224 98.768 20.8973 97.536 20.244C96.3227 19.5907 95.3614 18.6573 94.652 17.444C93.9614 16.2307 93.616 14.812 93.616 13.188C93.616 11.5827 93.9707 10.1733 94.68 8.96C95.3894 7.728 96.36 6.78533 97.592 6.132C98.824 5.47867 100.205 5.152 101.736 5.152C103.267 5.152 104.648 5.47867 105.88 6.132C107.112 6.78533 108.083 7.728 108.792 8.96C109.501 10.1733 109.856 11.5827 109.856 13.188C109.856 14.7933 109.492 16.212 108.764 17.444C108.055 18.6573 107.075 19.5907 105.824 20.244C104.592 20.8973 103.211 21.224 101.68 21.224ZM101.68 17.08C102.595 17.08 103.369 16.744 104.004 16.072C104.657 15.4 104.984 14.4387 104.984 13.188C104.984 11.9373 104.667 10.976 104.032 10.304C103.416 9.632 102.651 9.296 101.736 9.296C100.803 9.296 100.028 9.632 99.412 10.304C98.796 10.9573 98.488 11.9187 98.488 13.188C98.488 14.4387 98.7867 15.4 99.384 16.072C100 16.744 100.765 17.08 101.68 17.08ZM111.444 13.16C111.444 11.5547 111.743 10.1453 112.34 8.932C112.956 7.71867 113.787 6.78533 114.832 6.132C115.877 5.47867 117.044 5.152 118.332 5.152C119.433 5.152 120.395 5.376 121.216 5.824C122.056 6.272 122.7 6.86 123.148 7.588V5.376H127.936V21H123.148V18.788C122.681 19.516 122.028 20.104 121.188 20.552C120.367 21 119.405 21.224 118.304 21.224C117.035 21.224 115.877 20.8973 114.832 20.244C113.787 19.572 112.956 18.6293 112.34 17.416C111.743 16.184 111.444 14.7653 111.444 13.16ZM123.148 13.188C123.148 11.9933 122.812 11.0507 122.14 10.36C121.487 9.66933 120.684 9.324 119.732 9.324C118.78 9.324 117.968 9.66933 117.296 10.36C116.643 11.032 116.316 11.9653 116.316 13.16C116.316 14.3547 116.643 15.3067 117.296 16.016C117.968 16.7067 118.78 17.052 119.732 17.052C120.684 17.052 121.487 16.7067 122.14 16.016C122.812 15.3253 123.148 14.3827 123.148 13.188ZM136.188 7.98C136.748 7.12133 137.448 6.44933 138.288 5.964C139.128 5.46 140.061 5.208 141.088 5.208V10.276H139.772C138.577 10.276 137.681 10.5373 137.084 11.06C136.487 11.564 136.188 12.46 136.188 13.748V21H131.4V5.376H136.188V7.98ZM142.425 13.16C142.425 11.5547 142.723 10.1453 143.321 8.932C143.937 7.71867 144.767 6.78533 145.813 6.132C146.858 5.47867 148.025 5.152 149.313 5.152C150.339 5.152 151.273 5.36667 152.113 5.796C152.971 6.22533 153.643 6.804 154.129 7.532V0.28H158.917V21H154.129V18.76C153.681 19.5067 153.037 20.104 152.197 20.552C151.375 21 150.414 21.224 149.313 21.224C148.025 21.224 146.858 20.8973 145.813 20.244C144.767 19.572 143.937 18.6293 143.321 17.416C142.723 16.184 142.425 14.7653 142.425 13.16ZM154.129 13.188C154.129 11.9933 153.793 11.0507 153.121 10.36C152.467 9.66933 151.665 9.324 150.713 9.324C149.761 9.324 148.949 9.66933 148.277 10.36C147.623 11.032 147.297 11.9653 147.297 13.16C147.297 14.3547 147.623 15.3067 148.277 16.016C148.949 16.7067 149.761 17.052 150.713 17.052C151.665 17.052 152.467 16.7067 153.121 16.016C153.793 15.3253 154.129 14.3827 154.129 13.188Z" fill="#001ED2"/>
</svg>
