<svg width="191" height="21" viewBox="0 0 191 21" fill="none" xmlns="http://www.w3.org/2000/svg">
<path d="M10.76 20L6.672 12.58H5.524V20H0.736V0.343999H8.772C10.3213 0.343999 11.6373 0.614666 12.72 1.156C13.8213 1.69733 14.6427 2.444 15.184 3.396C15.7253 4.32933 15.996 5.37467 15.996 6.532C15.996 7.83867 15.6227 9.00533 14.876 10.032C14.148 11.0587 13.0653 11.7867 11.628 12.216L16.164 20H10.76ZM5.524 9.192H8.492C9.36933 9.192 10.0227 8.97733 10.452 8.548C10.9 8.11867 11.124 7.512 11.124 6.728C11.124 5.98133 10.9 5.39333 10.452 4.964C10.0227 4.53467 9.36933 4.32 8.492 4.32H5.524V9.192ZM23.7056 0.343999V12.104C23.7056 13.28 23.995 14.1853 24.5736 14.82C25.1523 15.4547 26.0016 15.772 27.1216 15.772C28.2416 15.772 29.1003 15.4547 29.6976 14.82C30.295 14.1853 30.5936 13.28 30.5936 12.104V0.343999H35.3816V12.076C35.3816 13.8307 35.0083 15.3147 34.2616 16.528C33.515 17.7413 32.507 18.656 31.2376 19.272C29.987 19.888 28.587 20.196 27.0376 20.196C25.4883 20.196 24.0976 19.8973 22.8656 19.3C21.6523 18.684 20.691 17.7693 19.9816 16.556C19.2723 15.324 18.9176 13.8307 18.9176 12.076V0.343999H23.7056ZM50.9798 16.528H43.6438L42.4678 20H37.4558L44.5678 0.343999H50.1118L57.2238 20H52.1558L50.9798 16.528ZM49.7478 12.832L47.3118 5.636L44.9038 12.832H49.7478ZM76.9723 20H72.1843L64.1763 7.876V20H59.3883V0.343999H64.1763L72.1843 12.524V0.343999H76.9723V20ZM93.491 6.56C93.1364 5.90667 92.623 5.412 91.951 5.076C91.2977 4.72133 90.523 4.544 89.627 4.544C88.0777 4.544 86.8364 5.05733 85.903 6.084C84.9697 7.092 84.503 8.44533 84.503 10.144C84.503 11.9547 84.9884 13.3733 85.959 14.4C86.9484 15.408 88.3017 15.912 90.019 15.912C91.195 15.912 92.1844 15.6133 92.987 15.016C93.8084 14.4187 94.4057 13.56 94.779 12.44H88.703V8.912H99.119V13.364C98.7644 14.5587 98.1577 15.6693 97.299 16.696C96.459 17.7227 95.3857 18.5533 94.079 19.188C92.7724 19.8227 91.2977 20.14 89.655 20.14C87.7137 20.14 85.9777 19.72 84.447 18.88C82.935 18.0213 81.7497 16.836 80.891 15.324C80.051 13.812 79.631 12.0853 79.631 10.144C79.631 8.20267 80.051 6.476 80.891 4.964C81.7497 3.43333 82.935 2.248 84.447 1.408C85.959 0.549332 87.6857 0.119999 89.627 0.119999C91.979 0.119999 93.9577 0.689332 95.563 1.828C97.187 2.96667 98.2604 4.544 98.783 6.56H93.491ZM119.101 20L112.493 11.32V20H107.705V0.343999H112.493V8.968L119.045 0.343999H124.673L117.057 9.976L124.953 20H119.101ZM132.016 4.18V8.156H138.428V11.852H132.016V16.164H139.268V20H127.228V0.343999H139.268V4.18H132.016ZM147.165 16.304H153.437V20H142.377V0.343999H147.165V16.304ZM167.956 16.528H160.62L159.444 20H154.432L161.544 0.343999H167.088L174.2 20H169.132L167.956 16.528ZM166.724 12.832L164.288 5.636L161.88 12.832H166.724ZM183.477 20.196C182.04 20.196 180.752 19.9627 179.613 19.496C178.474 19.0293 177.56 18.3387 176.869 17.424C176.197 16.5093 175.842 15.408 175.805 14.12H180.901C180.976 14.848 181.228 15.408 181.657 15.8C182.086 16.1733 182.646 16.36 183.337 16.36C184.046 16.36 184.606 16.2013 185.017 15.884C185.428 15.548 185.633 15.0907 185.633 14.512C185.633 14.0267 185.465 13.6253 185.129 13.308C184.812 12.9907 184.41 12.7293 183.925 12.524C183.458 12.3187 182.786 12.0853 181.909 11.824C180.64 11.432 179.604 11.04 178.801 10.648C177.998 10.256 177.308 9.67733 176.729 8.912C176.15 8.14667 175.861 7.148 175.861 5.916C175.861 4.08667 176.524 2.65867 177.849 1.632C179.174 0.586666 180.901 0.0639997 183.029 0.0639997C185.194 0.0639997 186.94 0.586666 188.265 1.632C189.59 2.65867 190.3 4.096 190.393 5.944H185.213C185.176 5.30933 184.942 4.81467 184.513 4.46C184.084 4.08667 183.533 3.9 182.861 3.9C182.282 3.9 181.816 4.05867 181.461 4.376C181.106 4.67467 180.929 5.11333 180.929 5.692C180.929 6.32667 181.228 6.82133 181.825 7.176C182.422 7.53067 183.356 7.91333 184.625 8.324C185.894 8.75333 186.921 9.164 187.705 9.556C188.508 9.948 189.198 10.5173 189.777 11.264C190.356 12.0107 190.645 12.972 190.645 14.148C190.645 15.268 190.356 16.2853 189.777 17.2C189.217 18.1147 188.396 18.8427 187.313 19.384C186.23 19.9253 184.952 20.196 183.477 20.196Z" fill="#001ED2"/>
</svg>
