<svg width="164" height="19" viewBox="0 0 164 19" fill="none" xmlns="http://www.w3.org/2000/svg">
<path d="M9.08 18L5.576 11.64H4.592V18H0.488V1.152H7.376C8.704 1.152 9.832 1.384 10.76 1.848C11.704 2.312 12.408 2.952 12.872 3.768C13.336 4.568 13.568 5.464 13.568 6.456C13.568 7.576 13.248 8.576 12.608 9.456C11.984 10.336 11.056 10.96 9.824 11.328L13.712 18H9.08ZM4.592 8.736H7.136C7.888 8.736 8.448 8.552 8.816 8.184C9.2 7.816 9.392 7.296 9.392 6.624C9.392 5.984 9.2 5.48 8.816 5.112C8.448 4.744 7.888 4.56 7.136 4.56H4.592V8.736ZM20.1763 1.152V11.232C20.1763 12.24 20.4243 13.016 20.9203 13.56C21.4163 14.104 22.1443 14.376 23.1043 14.376C24.0643 14.376 24.8003 14.104 25.3123 13.56C25.8243 13.016 26.0803 12.24 26.0803 11.232V1.152H30.1843V11.208C30.1843 12.712 29.8643 13.984 29.2243 15.024C28.5843 16.064 27.7203 16.848 26.6323 17.376C25.5603 17.904 24.3603 18.168 23.0323 18.168C21.7043 18.168 20.5123 17.912 19.4563 17.4C18.4163 16.872 17.5923 16.088 16.9843 15.048C16.3763 13.992 16.0723 12.712 16.0723 11.208V1.152H20.1763ZM43.5541 15.024H37.2661L36.2581 18H31.9621L38.0581 1.152H42.8101L48.9061 18H44.5621L43.5541 15.024ZM42.4981 11.856L40.4101 5.688L38.3461 11.856H42.4981ZM65.8334 18H61.7294L54.8654 7.608V18H50.7614V1.152H54.8654L61.7294 11.592V1.152H65.8334V18ZM79.9923 6.48C79.6883 5.92 79.2483 5.496 78.6723 5.208C78.1123 4.904 77.4483 4.752 76.6803 4.752C75.3523 4.752 74.2883 5.192 73.4883 6.072C72.6883 6.936 72.2883 8.096 72.2883 9.552C72.2883 11.104 72.7043 12.32 73.5363 13.2C74.3843 14.064 75.5443 14.496 77.0163 14.496C78.0243 14.496 78.8723 14.24 79.5603 13.728C80.2643 13.216 80.7763 12.48 81.0963 11.52H75.8883V8.496H84.8163V12.312C84.5123 13.336 83.9923 14.288 83.2563 15.168C82.5363 16.048 81.6163 16.76 80.4963 17.304C79.3763 17.848 78.1123 18.12 76.7043 18.12C75.0403 18.12 73.5523 17.76 72.2403 17.04C70.9443 16.304 69.9283 15.288 69.1923 13.992C68.4723 12.696 68.1123 11.216 68.1123 9.552C68.1123 7.888 68.4723 6.408 69.1923 5.112C69.9283 3.8 70.9443 2.784 72.2403 2.064C73.5363 1.328 75.0163 0.959999 76.6803 0.959999C78.6963 0.959999 80.3923 1.448 81.7683 2.424C83.1603 3.4 84.0803 4.752 84.5283 6.48H79.9923ZM101.944 18L96.2795 10.56V18H92.1755V1.152H96.2795V8.544L101.896 1.152H106.72L100.192 9.408L106.96 18H101.944ZM113.014 4.44V7.848H118.51V11.016H113.014V14.712H119.23V18H108.91V1.152H119.23V4.44H113.014ZM125.998 14.832H131.374V18H121.894V1.152H125.998V14.832ZM143.82 15.024H137.532L136.524 18H132.228L138.324 1.152H143.076L149.172 18H144.828L143.82 15.024ZM142.764 11.856L140.676 5.688L138.612 11.856H142.764ZM157.123 18.168C155.891 18.168 154.787 17.968 153.811 17.568C152.835 17.168 152.051 16.576 151.459 15.792C150.883 15.008 150.579 14.064 150.547 12.96H154.915C154.979 13.584 155.195 14.064 155.563 14.4C155.931 14.72 156.411 14.88 157.003 14.88C157.611 14.88 158.091 14.744 158.443 14.472C158.795 14.184 158.971 13.792 158.971 13.296C158.971 12.88 158.827 12.536 158.539 12.264C158.267 11.992 157.923 11.768 157.507 11.592C157.107 11.416 156.531 11.216 155.779 10.992C154.691 10.656 153.803 10.32 153.115 9.984C152.427 9.648 151.835 9.152 151.339 8.496C150.843 7.84 150.595 6.984 150.595 5.928C150.595 4.36 151.163 3.136 152.299 2.256C153.435 1.36 154.915 0.912 156.739 0.912C158.595 0.912 160.091 1.36 161.227 2.256C162.363 3.136 162.971 4.368 163.051 5.952H158.611C158.579 5.408 158.379 4.984 158.011 4.68C157.643 4.36 157.171 4.2 156.595 4.2C156.099 4.2 155.699 4.336 155.395 4.608C155.091 4.864 154.939 5.24 154.939 5.736C154.939 6.28 155.195 6.704 155.707 7.008C156.219 7.312 157.019 7.64 158.107 7.992C159.195 8.36 160.075 8.712 160.747 9.048C161.435 9.384 162.027 9.872 162.523 10.512C163.019 11.152 163.267 11.976 163.267 12.984C163.267 13.944 163.019 14.816 162.523 15.6C162.043 16.384 161.339 17.008 160.411 17.472C159.483 17.936 158.387 18.168 157.123 18.168Z" fill="#001ED2"/>
</svg>
